<svg id="sporting-news-logo-svg" data-name="Sporting News Logo" xmlns="http://www.w3.org/2000/svg" viewBox="0 0 1200 348.81" class="sporting-news-logo-svg"><defs><style>.logo-primary-fill{fill:#fe074e;}.logo-secondary-fill{fill:#f2f0e9;}</style></defs><title>SPORTINGNEWS - On Black</title><path class="logo-primary-fill" d="M339.36 195.4q0-5.4-2.76-8.16t-10-5.73q-13.29-5-19.11-11.8a23.71 23.71 0 0 1-5.83-16q0-11.17 7.92-17.93t20.07-6.78a30.13 30.13 0 0 1 14.5 3.43 23.79 23.79 0 0 1 9.8 9.68 29 29 0 0 1 3.43 14.2H339.6q0-6.19-2.64-9.44t-7.62-3.25a9.53 9.53 0 0 0-7.28 2.76 10.38 10.38 0 0 0-2.61 7.43 9.15 9.15 0 0 0 2.91 6.58q2.91 2.94 10.32 6.1 12.92 4.67 18.78 11.47t5.86 17.3q0 11.53-7.34 18t-20 6.49a34.38 34.38 0 0 1-15.6-3.52 26.39 26.39 0 0 1-11-10.07 29.26 29.26 0 0 1-4-15.47h17.9q0 7.65 3 11.1t9.71 3.46q9.36.04 9.37-9.85zM386.26 187.51v31.07h-17.84v-88.36h30.1q13.11 0 20.91 8.13t7.8 21.12q0 13-7.71 20.51t-21.36 7.52zm0-14.87h12.26a9.71 9.71 0 0 0 7.89-3.34q2.79-3.34 2.79-9.71 0-6.61-2.85-10.53a9.15 9.15 0 0 0-7.65-4h-12.44zM500.39 182.35q0 17.78-8.41 27.61t-23.33 9.83q-14.87 0-23.36-9.74t-8.62-27.28v-15.1q0-18.21 8.44-28.43T468.53 129q14.75 0 23.24 10t8.62 28.19zm-17.9-14.81q0-12-3.4-17.78t-10.56-5.83q-7.1 0-10.5 5.61t-3.52 17.08v15.72q0 11.59 3.46 17.08t10.68 5.49q7 0 10.38-5.37t3.46-16.66zM538.13 186.3h-8.86v32.28h-17.84v-88.36h28.46q13.41 0 20.72 6.95t7.31 19.75q0 17.6-12.8 24.64l15.48 36.17v.85h-19.18zm-8.86-14.87h10.13q5.34 0 8-3.55t2.67-9.5q0-13.29-10.38-13.29h-10.42zM638.26 145.09h-21.85v73.49h-17.9v-73.49H577v-14.87h61.23zM669.17 218.58h-17.84v-88.36h17.84zM726.23 130.22v58.02l-26.15-58.02h-17.84v88.36h17.84v-57.95l26.09 57.95h17.84v-88.36h-17.78zM816.47 208.57a32.58 32.58 0 0 1-12.65 8.43 46.28 46.28 0 0 1-16.42 2.82q-15.23 0-23.67-9.44t-8.68-27.46V167q0-18.27 8-28.13t23.26-9.87q14.38 0 21.7 7.1t8.47 22.27h-17.37q-.73-8.44-3.52-11.5t-8.74-3.07q-7.22 0-10.5 5.28T773 165.91v16q0 12.08 3.61 17.57t11.82 5.52a15.49 15.49 0 0 0 8.56-2.12l1.58-1.09v-16.2h-12.5V172.1h30.4z"/><path class="logo-secondary-fill" d="M891.32 218.58h-17.84l-26.09-58v58h-17.85v-88.36h17.84l26.16 58v-58h17.78zM950 180.35h-27.77v23.42h32.89v14.81h-50.73v-88.36H955v14.87h-32.77V166H950zM1027 185.75l8.37-55.53H1053l-15.72 88.36h-17.9l-10.32-52.07-10.2 52.07h-18l-15.78-88.36h17.78l8.31 55.47 10.38-55.47h15zM1098.36 195.4q0-5.4-2.76-8.16t-10-5.73q-13.29-5-19.12-11.8a23.72 23.72 0 0 1-5.83-16q0-11.17 7.92-17.93t20.12-6.77a30.12 30.12 0 0 1 14.5 3.43 23.79 23.79 0 0 1 9.8 9.68 29 29 0 0 1 3.43 14.2h-17.82q0-6.19-2.64-9.44t-7.62-3.25a9.54 9.54 0 0 0-7.28 2.76 10.38 10.38 0 0 0-2.61 7.43 9.15 9.15 0 0 0 2.91 6.58q2.91 2.94 10.32 6.1 12.93 4.67 18.78 11.47t5.86 17.3q0 11.53-7.34 18t-20 6.49a34.38 34.38 0 0 1-15.6-3.52 26.4 26.4 0 0 1-11-10.07 29.26 29.26 0 0 1-4-15.47h17.9q0 7.65 3 11.11t9.71 3.46q9.37.02 9.37-9.87z"/><path class="logo-primary-fill" d="M265.19 182v-15.24a10.78 10.78 0 0 0-3.16-7.63l-72.36-72.35a10.78 10.78 0 0 0-7.67-3.16h-15.24a10.78 10.78 0 0 0-7.63 3.16l-72.35 72.36a10.78 10.78 0 0 0-3.16 7.63V182a10.78 10.78 0 0 0 3.16 7.63L159.14 262a10.78 10.78 0 0 0 7.63 3.16H182a10.78 10.78 0 0 0 7.63-3.16L262 189.67a10.78 10.78 0 0 0 3.19-7.67zM182 245.45a5.39 5.39 0 0 1-3.81 1.58h-7.64a5.39 5.39 0 0 1-3.81-1.58L103.35 182a5.39 5.39 0 0 1-1.58-3.81v-7.64a5.39 5.39 0 0 1 1.58-3.81l16.58-16.58 18.16 18.16-5.1 5.1a1.35 1.35 0 0 0 0 1.91l40.46 40.46a1.35 1.35 0 0 0 1.91 0l10.2-10.2a1.35 1.35 0 0 0 0-1.91L164.81 183h36.31l21.7 21.7zm46.84-46.84l-18.16-18.16 5.1-5.1a1.35 1.35 0 0 0 0-1.91L175.36 133a1.35 1.35 0 0 0-1.91 0l-10.2 10.2a1.35 1.35 0 0 0 0 1.91L184 165.84h-36.31L126 144.14l40.79-40.79a5.39 5.39 0 0 1 3.81-1.58h7.64a5.39 5.39 0 0 1 3.81 1.58l63.42 63.42a5.39 5.39 0 0 1 1.58 3.81v7.64a5.39 5.39 0 0 1-1.58 3.81z"/></svg>